<svg width="330px" height="220px" class="hidden">
  <symbol xmlns="http://www.w3.org/2000/svg" viewBox="0 0 103 35" id="Vector">
    <path d="M23.255 32.425l6.164.128a43.037 43.037 0 01-6.164-2.682v2.554zm9.287-.846v.846l-3.123.128c5.875 1.995 11.25 2.266 15.241 1.149-3.203.032-7.37-.415-12.118-2.123zM98.349 13.19c2.559 0 4.651-2.059 4.651-4.613 0-2.554-2.076-3.91-4.651-3.91-2.56 0-4.651 1.372-4.651 3.91 0 2.538 2.076 4.613 4.65 4.613zm-4.667 19.235H103V14.786h-9.318v17.639zm-11.861 0h9.318V1.25L81.82 5.608v26.817zm-4.99-19.06c-2.929-2.904-8.11-2.729-8.11-2.729s-5.199-.175-8.112 2.73c-2.93 2.905-2.704 5.411-2.704 8.396 0 2.985-.225 5.475 2.704 8.38 2.93 2.905 8.111 2.73 8.111 2.73s5.198.175 8.112-2.73c2.929-2.905 2.703-5.395 2.703-8.38-.016-3.001.21-5.507-2.703-8.396zm-6.405 11.478c0 .574-.29 1.995-1.722 1.995s-1.722-1.42-1.722-1.995v-6.45c0-1.388 1.175-1.739 1.722-1.739.547 0 1.722.335 1.722 1.74v6.449zM53.335 13.366c-2.93-2.905-8.112-2.73-8.112-2.73s-5.182-.175-8.11 2.73a9.581 9.581 0 00-.854.957C30.111 9.6 24.591 6.901 19.827 4.57V1.266l-3.62 1.692C7.45-.569 1.882.053.546 2.974c0 0-4.007 5.236 9.946 17.687v11.764h9.318V27.86a47.773 47.773 0 01-3.122-2.171 99.376 99.376 0 01-6.18-5.012v-4.949c2.108 2.347 4.909 5.012 8.594 8.03l.724.574v-4.757c0-1.101.274-2.905 1.739-2.905 1.464 0 1.706 1.101 1.706 2.394v7.774a43.04 43.04 0 009.286 4.725V16.574c0-2.985-2.157-5.97-6.535-5.97a7.13 7.13 0 00-6.196 3.496V5.432c6.744 3.337 13.503 7.423 16.078 9.306-1.642 2.331-1.497 4.486-1.497 6.976 0 2.985-.225 5.475 2.704 8.38 2.93 2.905 8.111 2.73 8.111 2.73s5.199.175 8.112-2.73c2.929-2.905 2.687-5.395 2.687-8.38 0-2.953.242-5.46-2.687-8.348zM10.493 5.608v10.104c-7.838-8.7-6.26-12.131-5.665-12.626 2.173-1.82 6.035-1.277 10.364.335l-4.699 2.187zm36.452 19.235c0 .574-.29 1.995-1.722 1.995s-1.722-1.42-1.722-1.995v-6.45c0-1.388 1.175-1.739 1.722-1.739.548 0 1.722.335 1.722 1.74v6.449z" fill="#737373"></path>
  </symbol>
  <symbol xmlns="http://www.w3.org/2000/svg" viewBox="0 0 84 59" id="Vector-1">
    <path d="M.5.995h12.612V35.01c0 5.395 2.432 8.605 4.41 9.942-2.06 1.809-8.3 3.406-13.002-.456C1.764 42.214.5 38.416.5 34.879V.995zm78.769 28.278v-3.586h3.858V13.17h-4.23C77.258 5.624 70.596.017 62.636.017c-9.176 0-16.65 7.498-16.65 16.739v29.206c2.595.375 5.74-.049 8.382-2.281 2.772-2.282 4.02-6.063 4.02-9.616v-1.092h6.29V20.456h-6.29v-3.798c0-5.64 8.462-5.64 8.462 0v12.566c0 9.225 7.457 16.738 16.649 16.738V33.494a4.228 4.228 0 01-4.231-4.221zM31.56 13.138v18.417c0 2.51-3.858 2.51-3.858 0V13.138h-12.45v21.628c0 3.879 1.297 8.8 7.295 10.414 5.998 1.597 9.435-1.727 9.435-1.727-.34 2.183-2.35 3.797-5.658 4.123-2.513.26-5.706-.587-7.295-1.271v11.457c4.069 1.223 8.349 1.598 12.58.766 7.635-1.483 12.45-7.888 12.45-16.428V13.056H31.56v.082z" fill="#737373"></path>
  </symbol>
  <symbol xmlns="http://www.w3.org/2000/svg" viewBox="0 0 102 75" id="Vector-2">
    <path d="M102 .146C89.123 8.828 87.752 15.13 86.636 17.057c-1.068 1.977-1.864 9.768-3.713 13.542-1.865 3.823-8.638 6.836-10.535 8.1-1.865 1.263-4.51 6.171-6.678 10.4-17.228-.713-26.68 6.284-41.31 15.161 4.686-1.571 6.901-2.705 6.901-2.705 15.013-5.831 22.201-11.064 44.8-7.97.176 0 .303.097.447.13a1.28 1.28 0 01.494 1.75l-8.59 15.518a1.905 1.905 0 01-2.088.988c-20.209-3.855-36.162 2.802-50.825 3.013C3.841 75.162 0 69.557 0 69.298c0-.178.096-.275.27-.275 0 0 6.105 0 16.433-2.479 11.73-22.726 22.185-30.68 33.564-30.68 0 0 11.427 0 14.44 10.027 3.633-6.43 4.51-7.97 4.51-7.97.844-1.523 5.578-12.505 13.77-22.905C91.194 4.65 97.394 2.073 102 .146z" fill="#737373"></path>
  </symbol>
  <symbol xmlns="http://www.w3.org/2000/svg" viewBox="0 0 103 43" id="Vector-3">
    <path d="M26.555 3.793l-6.968 1.464-.032 22.654c0 4.184 3.186 6.889 7.419 6.889 2.35 0 4.072-.43 5.021-.939v-5.377c-.917.366-5.423 1.67-5.423-2.498V15.932h5.423V9.918h-5.423l-.017-6.125zm14.34 8.21l-.434-2.085h-6.18v24.373h7.129V17.889c1.69-2.196 4.539-1.766 5.456-1.48V9.92c-.966-.335-4.297-.955-5.971 2.083zM55.75.5l-7.178 1.511v5.76l7.178-1.512V.5zM7.227 17.093c0-1.098.933-1.527 2.43-1.543 2.173 0 4.94.652 7.113 1.814v-6.65c-2.365-.923-4.731-1.289-7.097-1.289-5.794 0-9.656 2.99-9.656 7.986 0 7.828 10.863 6.555 10.863 9.928 0 1.304-1.142 1.734-2.736 1.734-2.366 0-5.423-.97-7.821-2.26v6.364a20.003 20.003 0 007.805 1.607c5.939 0 10.027-2.514 10.027-7.604 0-8.416-10.928-6.905-10.928-10.087zM103 22.391c0-7.239-3.54-12.95-10.332-12.95-6.792 0-10.928 5.711-10.928 12.902 0 8.512 4.876 12.441 11.829 12.441 3.412 0 5.97-.764 7.918-1.83v-5.313c-1.947.97-4.184 1.559-7.017 1.559-2.784 0-5.23-.97-5.552-4.28h13.985c.032-.366.097-1.845.097-2.53zm-14.147-2.673c0-3.182 1.98-4.518 3.766-4.518 1.755 0 3.621 1.336 3.621 4.518h-7.387zM70.684 9.441c-2.8 0-4.602 1.304-5.6 2.211l-.37-1.75H58.42v32.582l7.146-1.495.016-7.987c1.03.748 2.559 1.782 5.053 1.782 5.118 0 9.785-3.69 9.785-12.663.016-8.21-4.715-12.68-9.736-12.68zM68.98 28.93c-1.674 0-2.672-.605-3.364-1.337l-.048-10.5c.74-.811 1.77-1.4 3.412-1.4 2.607 0 4.41 2.896 4.41 6.586.015 3.803-1.755 6.65-4.41 6.65zm-20.391 5.36h7.178V9.919h-7.178v24.373z" fill="#737373"></path>
  </symbol>
  <symbol xmlns="http://www.w3.org/2000/svg" viewBox="0 0 105 63" id="Vector-4">
    <path d="M29.887 22.989c-.117 3.638 1.717 5.249 1.763 6.272a1.304 1.304 0 01-.665 1.007l-2.073 1.44a1.736 1.736 0 01-.912.308c-.07-.004-1.327.294-3.318-4.114a12.719 12.719 0 01-4.518 3.531 12.826 12.826 0 01-5.624 1.2c-2.637.142-9.785-1.485-9.417-9.03-.257-6.148 5.518-9.967 11.49-9.645 1.15.004 3.5.06 7.613 1.008v-2.51c.435-4.25-2.382-7.547-7.26-7.052-.388.001-3.142-.08-7.425 1.624-1.193.543-1.345.453-1.742.453-1.2 0-.706-3.45-.476-3.887.844-1.028 5.81-2.948 10.682-2.92a12.522 12.522 0 019.021 2.775 11.268 11.268 0 012.3 3.914 11.2 11.2 0 01.563 4.496l-.002 11.13zm-14 5.202c5.254-.075 7.478-3.207 7.985-4.894.399-1.614.332-2.636.332-4.401-1.566-.373-3.821-.779-6.408-.782-2.454-.183-6.937.904-6.762 5.181-.2 2.697 1.802 5.044 4.854 4.896zm27.689 3.703c-1.274.115-1.867-.781-2.054-1.666L33.454 3.78a6.092 6.092 0 01-.31-1.378.736.736 0 01.136-.55.748.748 0 01.489-.293c.038-.006-.346 0 3.604 0 1.422-.141 1.886.969 2.033 1.666l5.786 22.62 5.372-22.62c.086-.517.476-1.778 2.074-1.645h2.78c.35-.029 1.8-.08 2.053 1.666l5.414 22.91 5.973-22.91c.078-.35.44-1.827 2.054-1.666h3.195c.137-.02.996-.13.85 1.378-.07.297.552-1.712-8.545 27.29-.186.885-.78 1.781-2.054 1.665H61.33c-1.772.185-2.026-1.551-2.054-1.726L53.904 8.162l-5.31 22.003c-.026.175-.28 1.912-2.054 1.727h-2.964v.002zm44.302.904c-.953.001-5.495-.048-9.292-1.974a2.07 2.07 0 01-.926-.766 2.044 2.044 0 01-.34-1.147v-1.727c0-1.357 1.005-1.108 1.43-.946 1.627.652 2.67 1.147 4.668 1.542 5.937 1.21 8.548-.37 9.188-.72 2.13-1.254 2.299-4.124.85-5.613-1.697-1.412-2.507-1.465-8.606-3.373-.752-.208-7.08-2.187-7.094-8.41C77.657 5.127 81.814.64 89.018.676c2.053-.002 7.522.663 9.002 2.509.219.335.327.73.311 1.13V5.94c0 .713-.262 1.07-.789 1.07-1.249-.138-3.465-1.794-7.963-1.727-1.116-.058-6.462.146-6.223 4.011-.07 3.045 4.311 4.187 4.812 4.32 5.906 1.761 7.88 2.053 10.225 4.75 2.776 3.574 1.28 7.758.704 8.905-3.09 6.022-11.083 5.532-11.22 5.529zM94.39 49.64c-11.345 8.308-27.813 12.73-41.874 12.73-18.973.124-37.306-6.793-51.396-19.392-1.058-.946-.124-2.242 1.162-1.521a103.933 103.933 0 0051.332 13.511A102.843 102.843 0 0092.75 47.01c1.909-.803 3.527 1.253 1.64 2.63zm4.728-5.347c-1.451-1.85-9.603-.865-13.252-.433-1.1.124-1.287-.822-.29-1.52 6.49-4.525 17.152-3.23 18.376-1.708 1.223 1.521-.332 12.112-6.408 17.172-.933.782-1.826.37-1.411-.658 1.367-3.414 4.437-11.002 2.985-12.853z" fill="#737373"></path>
  </symbol>
  <symbol xmlns="http://www.w3.org/2000/svg" viewBox="0 0 77 73" id="Vector-5">
    <path d="M67.926 28.161c-2.395 0-4.503.995-6.051 2.55-5.7-3.96-13.38-6.51-21.89-6.783l4.422-20.012L58.49 7.09c0 3.463 2.81 6.286 6.259 6.286 3.512 0 6.338-2.903 6.338-6.367 0-3.463-2.81-6.366-6.338-6.366-2.46 0-4.583 1.492-5.636 3.528L43.56.708c-.782-.208-1.548.353-1.756 1.139L36.95 23.912c-8.446.353-16.046 2.902-21.762 6.863a8.468 8.468 0 00-6.131-2.614c-8.877 0-11.783 11.963-3.656 16.052-.288 1.267-.415 2.614-.415 3.96 0 13.439 15.072 24.327 33.577 24.327 18.585 0 33.657-10.888 33.657-24.326 0-1.347-.144-2.758-.495-4.025 7.967-4.105 5.03-15.988-3.8-15.988zm-49.64 16.902c0-3.528 2.81-6.366 6.34-6.366 3.448 0 6.258 2.822 6.258 6.366 0 3.464-2.81 6.286-6.259 6.286-3.512.016-6.338-2.822-6.338-6.286zm34.216 14.993c-5.811 5.837-22.209 5.837-28.02 0-.64-.56-.64-1.555 0-2.197.558-.56 1.548-.56 2.107 0 4.439 4.57 19.16 4.65 23.79 0 .559-.56 1.549-.56 2.108 0 .654.642.654 1.636.015 2.197zm-.127-8.691c-3.449 0-6.26-2.822-6.26-6.286 0-3.528 2.811-6.366 6.26-6.366a6.327 6.327 0 016.338 6.366c-.016 3.448-2.826 6.286-6.338 6.286z" fill="#737373"></path>
  </symbol>
</svg>
